# xmcd
#
# Track frame offsets:
#	150
#	9977
#	20035
#	31907
#	43102
#	54522
#	61871
#	73455
#	84235
#	99201
#	108182
#	117140
#	127820
#	138660
#	148638
#	158824
#	170373
#	182225
#	193515
#
# Disc length: 2862 seconds
#
# Revision: 6
# Processed by: cddbd v1.5.2PL0 Copyright (c) Steve Scherf et al.
# Submitted via: EasyCDDAExtractor 11.0.0.1
#
DISCID=fb0b2c13
DTITLE=The Residents - The Bunny Boy
DYEAR=2008
DGENRE=Cult
TTITLE0=Boxes Of Armageddon
TTITLE1=Rabbit Habit
TTITLE2=I'm Not Crazy
TTITLE3=Pictures from a Little Girl
TTITLE4=What If It's True
TTITLE5=Fever Dreams
TTITLE6=Butcher Shop
TTITLE7=I Like Black
TTITLE8=Secret Room
TTITLE9=My Nigerian Friend
TTITLE10=It Was Me
TTITLE11=Golden Guy
TTITLE12=The Bunny Boy
TTITLE13=Blood on the Bunny
TTITLE14=I Killed Him
TTITLE15=The Dark Man
TTITLE16=Secret Message
TTITLE17=Patmos
TTITLE18=The Black Behind
EXTD=
EXTT0=
EXTT1=
EXTT2=
EXTT3=
EXTT4=
EXTT5=
EXTT6=
EXTT7=
EXTT8=
EXTT9=
EXTT10=
EXTT11=
EXTT12=
EXTT13=
EXTT14=
EXTT15=
EXTT16=
EXTT17=
EXTT18=
PLAYORDER=
